<svg width="82" height="24" viewBox="0 0 82 24" fill="none" xmlns="http://www.w3.org/2000/svg">
    <path
        d="M9.608 24c5.55 0 9.575-3.679 9.575-8.861 0-5.183-4.024-8.862-9.575-8.862C4.058 6.277 0 9.956 0 15.138 0 20.322 4.057 24 9.608 24Zm0-4.095c-2.532 0-4.48-1.791-4.48-4.767 0-2.975 1.948-4.766 4.48-4.766 2.532 0 4.447 1.791 4.447 4.767 0 2.975-1.915 4.766-4.447 4.766ZM29.245 14.986c0 .345.331.476.47.516a.45.45 0 0 0 .124.015h4.205s.64 0 .656-.531V5.424s1.363 0 4.772-2.02c1.666-.989 2.518-1.976 2.953-2.728.284-.49-.247-.847-.756-.59-1.583.798-4.75 1.97-9.696 1.97-4.947 0-8.114-1.172-9.697-1.97-.51-.257-1.04.1-.756.59.435.752 1.287 1.74 2.953 2.727 3.41 2.02 4.773 2.02 4.773 2.02v9.563Z"
        fill="#232323" />
    <path
        d="M27.058 9.826c0 1.128-.944 2.042-2.107 2.042-1.163 0-2.106-.914-2.106-2.042 0-1.128.943-2.043 2.106-2.043 1.163 0 2.107.915 2.107 2.043ZM41.1 9.826c0 1.128-.943 2.042-2.106 2.042-1.163 0-2.106-.914-2.106-2.042 0-1.128.943-2.043 2.106-2.043 1.163 0 2.106.915 2.106 2.043ZM25.936 23.172a.84.84 0 0 0 .854.828.84.84 0 0 0 .853-.828c0-.472-.157-.827.427-.827.583 0 .426.355.426.827a.84.84 0 0 0 .854.828.84.84 0 0 0 .853-.828c0-.585.002-.81-.001-.878a1.27 1.27 0 0 0-.044-.28 1.602 1.602 0 0 0-.286-.58c-.354-.458-.954-.744-1.802-.744-.52 0-.947.107-1.28.296-.334-.189-.761-.296-1.28-.296-.849 0-1.45.286-1.804.744a1.602 1.602 0 0 0-.329.86c0 .004-.001-.038-.001.878a.84.84 0 0 0 .853.828.84.84 0 0 0 .854-.828c0-.472-.157-.827.426-.827.584 0 .427.355.427.827ZM36.604 23.172a.84.84 0 0 0 .853.828.84.84 0 0 0 .854-.828c0-.472-.157-.827.426-.827.584 0 .427.355.427.827a.84.84 0 0 0 .853.828.84.84 0 0 0 .854-.828c0-.585.002-.81-.002-.878a1.27 1.27 0 0 0-.044-.28 1.605 1.605 0 0 0-.285-.58c-.354-.458-.954-.744-1.803-.744-.52 0-.946.107-1.28.296-.334-.189-.76-.296-1.28-.296-.848 0-1.449.286-1.803.744a1.602 1.602 0 0 0-.33.86v.878a.84.84 0 0 0 .853.828.84.84 0 0 0 .853-.828c0-.472-.156-.827.427-.827s.427.355.427.827ZM58.553 6.646a.417.417 0 0 0-.42.413v8.042c0 3.146-1.688 4.608-4.023 4.608-2.238 0-3.536-1.271-3.536-4.132V7.06a.417.417 0 0 0-.42-.413h-4.22a.417.417 0 0 0-.42.413v9.25c0 5.275 3.081 7.691 7.46 7.691 2.141 0 4.088-.795 5.418-2.288v1.62c0 .229.188.414.42.414h3.96a.417.417 0 0 0 .42-.413V7.058a.417.417 0 0 0-.42-.413h-4.219ZM73.7 24c5.261 0 8.3-2.271 8.3-5.47 0-6.783-10.62-3.935-10.62-6.879 0-.895.98-1.6 3.268-1.6 1.477 0 3.065.273 4.662 1.069.22.11.492.025.597-.195l1.34-2.8a.395.395 0 0 0-.175-.527c-1.676-.846-4.164-1.321-6.424-1.321-5.13 0-8.136 2.303-8.136 5.566 0 6.878 10.62 4 10.62 6.814 0 .96-.883 1.568-3.236 1.568-1.973 0-4.138-.563-5.693-1.418a.449.449 0 0 0-.623.188l-1.338 2.823a.395.395 0 0 0 .157.516C68.085 23.294 70.907 24 73.7 24Z"
        fill="#232323" />
</svg>